<svg width="156" height="65" viewBox="0 0 156 65" fill="none" xmlns="http://www.w3.org/2000/svg">
<path d="M153.737 49.5319C152.665 49.8997 151.426 50.9113 150.798 51.3894C148.469 53.1918 145.863 54.6447 143.091 55.6378C141.409 56.2447 139.468 56.6861 137.842 55.8953C131.891 52.9895 133.647 34.7637 139.635 32.3912C140.337 32.1154 141.113 32.1337 141.853 32.1521C145.789 32.2441 152.295 33.8074 155.178 30.9015C155.955 30.1107 156.232 28.9521 155.788 27.9405C155.141 26.4876 153.533 26.3773 152.129 26.3405C149.412 26.2853 146.677 26.2117 143.96 26.1566C147.73 21.4484 149.782 15.3977 149.634 9.36532C149.597 7.26872 149.264 5.13532 148.229 3.33298C147.194 1.53063 145.309 0.0777177 143.202 0.00415249C139.986 -0.124587 137.528 2.76285 135.846 5.50315C132.15 11.5539 129.654 18.3219 128.545 25.3106C125.976 25.3474 123.426 25.3841 120.857 25.4209C119.212 25.4393 116.92 26.2117 117.345 27.8302C117.493 28.3451 117.881 28.7865 118.362 29.0072C120.469 30.0187 122.816 30.5705 125.163 30.5889C125.884 30.5889 126.716 30.6257 127.122 31.2142C127.381 31.582 127.363 32.0786 127.326 32.52C127.141 35.2235 126.956 37.9086 126.79 40.6121C126.605 43.4628 126.402 46.3686 125.403 49.0537C124.202 52.2722 121.726 54.7366 118.51 55.9689C118.029 56.1528 117.53 56.2999 117.031 56.2263C115.719 56.0056 115.22 54.424 115.109 53.1182C114.61 47.7112 116.07 42.3593 116.92 36.989C117.179 35.3338 117.382 33.6234 116.902 32.0234C115.811 28.4187 111.764 27.9773 109.121 30.2394C107.55 31.5636 106.607 33.4579 105.701 35.297C104.241 38.2764 102.763 41.2742 101.303 44.2536C101.118 44.6398 100.674 45.0628 100.36 44.787C100.933 41.0903 101.395 37.3753 101.709 33.6602C101.82 32.3912 101.876 31.0119 101.099 30.0004C99.824 28.3819 96.8669 28.6578 95.4068 29.8532C93.7619 31.2142 93.3737 33.9177 93.0595 35.8672C92.3757 40.0788 91.6734 44.3088 91.2483 48.5572C91.1374 49.679 90.3611 50.6354 89.2891 50.9848C87.5333 51.5549 85.5927 51.0768 84.3544 49.7158C81.9332 47.0491 83.4303 43.0214 84.6871 40.1891C85.8699 37.504 88.8641 31.6188 87.1822 29.467C86.7756 28.9337 86.0548 28.7314 85.3894 28.6394C83.8923 28.4187 82.0256 28.2532 80.7134 29.1911C79.1609 30.2762 78.6434 32.6303 77.9595 34.2671C76.98 36.6028 76.0189 38.9385 75.0393 41.2742C73.1357 45.8353 71.5092 50.6538 69.2729 55.0677C69.5871 54.332 69.3283 52.8975 69.3468 52.0883C69.4207 48.5204 69.5131 44.9709 69.5871 41.403C69.6425 38.3868 70.6221 33.8625 69.8089 30.9751C68.8108 27.444 62.7486 27.8302 61.1776 30.8831C60.6232 31.9682 60.6601 35.5729 60.6601 37.835C60.6601 40.465 60.7341 43.0766 60.8449 45.7065C60.9374 47.9503 59.5327 50.0101 57.3703 50.709C57.3518 50.709 57.3518 50.7089 57.3333 50.7273C55.3927 51.3343 53.0085 51.2055 51.6408 49.679C49.2381 47.0123 49.811 43.003 51.0678 40.1707C52.1398 37.7615 53.9326 33.7706 55.06 31.3061C55.559 30.2027 54.8567 28.9337 53.6738 28.7681C52.8976 28.6578 52.1768 28.5474 51.9919 28.5291C50.6427 28.4371 49.1826 28.3451 48.0183 29.1727C46.4657 30.2578 45.9482 32.6119 45.2644 34.2487C44.2848 36.5844 43.3238 38.9201 42.3442 41.2558C40.4405 45.8169 38.8141 50.6354 36.5777 55.0493C36.8919 54.3136 36.6332 52.8791 36.6517 52.0699C36.818 45.0628 37.0768 38.0557 37.0768 31.0303C37.0583 30.4785 37.0213 29.8716 36.6886 29.4302C35.6351 28.0693 32.4747 28.9888 31.07 29.1911C27.0224 29.7797 27.928 34.7085 27.965 37.7063C28.002 40.7409 28.0574 43.7754 28.1868 46.81C28.1868 46.8468 28.1868 46.8836 28.1868 46.9203C28.5195 55.0861 17.2823 59.1138 12.6432 57.4402C10.7211 56.7413 10.0927 54.9941 9.53819 53.0446C13.9 51.9412 17.9291 49.5135 20.9233 46.1479C23.7695 42.9662 25.7286 38.4236 24.2316 34.4327C22.7715 30.4969 18.1694 28.2716 13.9924 28.8049C4.58494 30.0187 -0.0910681 41.5317 0.00134322 49.8629C0.05679 55.2884 1.27662 61.6702 7.09853 63.6932C9.87087 64.6496 12.9389 64.4472 15.7667 63.6196C19.8513 62.4242 23.4923 60.3276 26.5788 57.4402C27.0779 56.962 29.037 54.9022 28.9446 54.3504C29.5175 57.8448 29.2403 65.2013 34.6556 64.6496C37.5388 64.3553 40.1448 61.7989 41.3462 59.408C43.1574 55.7482 43.8228 53.6332 46.0222 50.8377C46.5027 50.2308 46.9278 50.8561 47.0941 51.2423C48.6836 54.6447 51.4744 55.0861 54.9491 54.2217C57.0561 53.7067 59.1261 53.0263 61.1222 52.1986C60.8819 52.2906 61.9724 59.3896 62.1757 60.0517C62.878 62.3874 64.3011 64.6679 67.0365 64.7415C72.729 64.8886 76.8506 55.2516 78.6434 51.0768C78.7173 50.8929 78.8836 50.7273 79.0869 50.6906C79.4935 50.5986 79.6784 50.948 79.8262 51.2423C80.4177 52.5113 81.1015 53.5964 82.4137 54.2401C84.2805 55.1413 86.6092 54.4792 88.5129 54.001C89.0489 53.8723 89.5849 53.7251 90.1024 53.5596C90.3611 53.486 90.5459 53.7067 90.5275 53.9642C90.0654 60.0885 92.1539 69.229 98.3639 62.8104C99.5098 61.6334 100.157 60.0885 100.822 58.5988C103.188 53.2469 105.923 48.0422 108.991 43.0398C108.732 48.1158 108.067 55.3619 108.88 59.3345C109.268 61.192 109.971 63.2518 111.708 64.0426C113.187 64.7047 114.924 64.2266 116.44 63.6748C121.023 62.0196 125.348 60.4563 128.675 56.4103C129.229 60.5667 134.645 64.1714 138.859 64.0426C143.054 63.9139 146.898 61.6702 150.318 59.2425C153.238 57.1643 156.343 54.1665 155.751 50.617C155.437 49.3848 154.642 49.2193 153.737 49.5319ZM136.844 19.5357C137.361 17.4943 137.916 15.6184 138.507 13.9264C139.099 12.2344 139.709 10.8366 140.356 9.73315C141.003 8.64806 141.631 8.09632 142.259 8.09632C142.721 8.09632 143.073 8.18828 143.331 8.39058C143.59 8.5745 143.775 8.81358 143.886 9.10784C144.015 9.4021 144.089 9.69637 144.126 10.0274C144.163 10.3585 144.181 10.6343 144.181 10.9102C144.181 11.6642 143.978 12.639 143.572 13.816C143.165 14.9931 142.647 16.2621 142.019 17.623C141.391 18.984 140.688 20.3633 139.894 21.7794C139.321 22.8094 138.748 23.8025 138.212 24.7221C137.861 25.3106 137.214 25.66 136.53 25.6048H136.511H136.493C135.92 25.5681 135.532 25.0163 135.661 24.4646C136.012 22.8645 136.419 21.2277 136.844 19.5357ZM8.59559 47.3066C8.41077 45.2467 9.03917 43.1869 9.77846 41.2558C10.4623 39.4167 11.793 37.3201 13.4749 36.235C15.6004 34.8557 18.3357 36.3637 18.6315 38.8834C18.6869 39.3615 18.6315 39.8397 18.5021 40.2995C17.8552 42.58 16.506 44.8237 14.6578 46.3686C13.8076 47.0675 12.7911 47.6744 11.7006 47.8951C11.2386 47.987 8.66952 48.0974 8.59559 47.3066Z" fill="#F53855"/>
</svg>
