<svg width="242" height="35" viewBox="0 0 242 35" fill="none" xmlns="http://www.w3.org/2000/svg">
<path d="M17.8852 8.63452C17.5999 8.60494 17.3107 8.59038 17.0194 8.59038C16.7284 8.59038 16.4414 8.60494 16.1582 8.63317L15.2793 0.089019C15.8516 0.0298626 16.4318 -5.44111e-05 17.0194 -5.44111e-05C17.5999 -5.44111e-05 18.1748 0.029412 18.7414 0.0872137L17.8852 8.63452Z" fill="#274189"/>
<path d="M14.3967 9.04317C14.1237 9.12739 13.8515 9.22843 13.5829 9.34437C13.3156 9.45772 13.0565 9.58608 12.8067 9.72449L8.69141 2.20564C9.1938 1.92465 9.71715 1.66849 10.2576 1.43695C10.7927 1.20721 11.3336 1.00874 11.8761 0.837595L14.3967 9.04317Z" fill="#274189"/>
<path d="M11.5468 10.5971C11.3298 10.7836 11.1179 10.9816 10.9156 11.1947C10.7133 11.4054 10.5246 11.6241 10.3477 11.8491L3.64844 6.55237C4.00317 6.09639 4.38585 5.65362 4.79388 5.22666C5.19798 4.80466 5.61736 4.40784 6.05204 4.03687L11.5468 10.5971Z" fill="#274189"/>
<path d="M9.47885 13.2017C9.34648 13.4567 9.22416 13.7217 9.11494 13.9947C9.00572 14.2672 8.9118 14.5424 8.83186 14.8171L0.654297 12.4393C0.814625 11.8827 1.00466 11.3271 1.2244 10.7772C1.44151 10.2334 1.68528 9.70598 1.94915 9.19931L9.47885 13.2017Z" fill="#274189"/>
<path d="M8.55239 16.3779C8.52311 16.6667 8.51002 16.9579 8.51002 17.251C8.51002 17.5465 8.52311 17.8354 8.55239 18.122L0.0873718 19.0089C0.0297064 18.4311 0 17.8451 0 17.251C0 16.6646 0.0283958 16.0869 0.0860612 15.5144L8.55239 16.3779Z" fill="#274189"/>
<path d="M8.96067 19.8992C9.04498 20.1749 9.14415 20.4482 9.25816 20.7216C9.37175 20.9906 9.49712 21.253 9.63474 21.5044L2.1863 25.6608C1.90889 25.1514 1.65463 24.6222 1.42485 24.0776C1.19812 23.5374 1.00022 22.9906 0.832031 22.4437L8.96067 19.8992Z" fill="#274189"/>
<path d="M10.4978 22.7764C10.6826 22.997 10.8805 23.2109 11.0902 23.4137C11.2994 23.6188 11.5162 23.8106 11.7398 23.987L6.49097 30.7518C6.0397 30.3902 5.60196 30.0043 5.17909 29.5942C4.76101 29.1863 4.36784 28.763 4 28.3242L10.4978 22.7764Z" fill="#274189"/>
<path d="M13.0772 24.8622C13.3305 24.9967 13.5926 25.1202 13.8648 25.2327C14.1335 25.3407 14.4052 25.4377 14.6782 25.5149L12.3227 33.7703C11.7696 33.6093 11.2205 33.4197 10.6766 33.1948C10.1371 32.9765 9.61503 32.7317 9.11133 32.4649L13.0772 24.8622Z" fill="#274189"/>
<path d="M16.1309 25.6784C16.4157 25.707 16.7033 25.7203 16.9959 25.7203C17.2873 25.7203 17.5735 25.707 17.8561 25.6784L18.7355 34.2226C18.1632 34.2821 17.5835 34.313 16.9959 34.313C16.4149 34.313 15.8404 34.2821 15.2734 34.2248L16.1309 25.6784Z" fill="#274189"/>
<path d="M19.6172 25.2682C19.8903 25.1845 20.1619 25.083 20.4311 24.9684C20.6984 24.8537 20.9575 24.728 21.2074 24.5891L25.3239 32.108C24.8202 32.3859 24.2973 32.6438 23.7565 32.8753C23.2213 33.1047 22.6809 33.3031 22.1366 33.4751L19.6172 25.2682Z" fill="#274189"/>
<path d="M22.4668 23.7162C22.6844 23.531 22.8958 23.3304 23.0981 23.1187C23.3012 22.907 23.4904 22.6866 23.666 22.4638L30.3652 27.7601C30.0106 28.2166 29.6283 28.6576 29.2207 29.0853C28.8166 29.5065 28.3959 29.9034 27.9612 30.276L22.4668 23.7162Z" fill="#274189"/>
<path d="M24.5352 21.1099C24.6679 20.8564 24.7907 20.5895 24.8995 20.3183C25.0078 20.0472 25.1031 19.7715 25.1826 19.4959L33.3592 21.875C33.1998 22.4307 33.0097 22.9841 32.7891 23.5332C32.572 24.0778 32.3282 24.6048 32.0644 25.1141L24.5352 21.1099Z" fill="#274189"/>
<path d="M25.4863 18.0544C25.5147 17.767 25.5287 17.4746 25.5287 17.1804C25.5287 16.8872 25.5147 16.5983 25.4863 16.3117L33.9513 15.4231C34.0095 16.0008 34.0395 16.5872 34.0395 17.1804C34.0395 17.767 34.0095 18.3473 33.9526 18.9205L25.4863 18.0544Z" fill="#274189"/>
<path d="M25.0804 14.5342C24.9965 14.2573 24.8955 13.9838 24.7811 13.7113C24.6675 13.4409 24.543 13.1804 24.4062 12.9289L31.8539 8.77309C32.1313 9.28191 32.3855 9.80935 32.6153 10.3562C32.842 10.8964 33.04 11.4402 33.2082 11.9897L25.0804 14.5342Z" fill="#274189"/>
<path d="M23.5403 11.6567C23.356 11.4367 23.1594 11.2229 22.9484 11.0178C22.7387 10.8149 22.5225 10.6231 22.2988 10.444L27.5463 3.68237C27.9984 4.04171 28.4366 4.42713 28.8596 4.83908C29.279 5.24527 29.6708 5.66896 30.039 6.10913L23.5403 11.6567Z" fill="#274189"/>
<path d="M20.9616 9.56689C20.7069 9.43323 20.4461 9.31063 20.1753 9.19999C19.9056 9.08969 19.6335 8.99531 19.3613 8.9155L21.7165 0.660136C22.2686 0.822928 22.8182 1.01338 23.363 1.23612C23.9016 1.45615 24.4237 1.69955 24.9274 1.96767L20.9616 9.56689Z" fill="#274189"/>
<path d="M107.646 31.8457H115.43V8.81056H126.542V2.65999H96.5039V8.81056H107.646V31.8457Z" fill="#274189"/>
<path fill-rule="evenodd" clip-rule="evenodd" d="M168.776 17.5657C168.776 12.2989 170.71 7.65753 177.702 7.58212C184.77 7.50671 187.623 12.164 187.22 17.4157C186.846 22.2958 184.691 26.4984 177.702 26.4984C170.934 26.4984 168.776 22.2958 168.776 17.5657ZM159.76 16.9505C159.76 25.6341 166.434 32.5907 177.782 32.5863C189.005 32.5797 195.807 25.6341 195.807 16.9505C195.807 8.01687 189.122 1.7262 177.775 1.7262C166.427 1.7262 159.76 8.01687 159.76 16.9505Z" fill="#274189"/>
<path d="M198.145 31.8457H205.96V13.2049H206.063L221.046 31.8457H230.055V2.61901L222.155 2.65999V21.6456H222.052L207.048 2.65999H198.145V31.8457Z" fill="#274189"/>
<path d="M38.0391 31.8678H62.5368V25.6542H45.8492V2.61905H38.0391V31.8678Z" fill="#274189"/>
<path d="M94.7321 2.61874H86.9494V20.49C86.9494 24.9572 84.4448 26.7277 78.6936 26.7277C73.0655 26.7277 70.4719 24.9836 70.4807 20.49V2.61874H62.7168V20.49C62.7168 28.6659 68.8345 32.5863 78.6936 32.5863C88.5011 32.5863 94.7321 28.624 94.7321 20.49V2.61874Z" fill="#274189"/>
<path fill-rule="evenodd" clip-rule="evenodd" d="M135.359 8.6164H145.044C148.642 8.6164 151.143 9.13459 151.143 12.0402C151.143 15.0747 148.642 15.4761 145.044 15.4761H135.359V8.6164ZM128.236 31.8461H135.462V20.4773H147.154C150.193 20.431 150.746 21.9282 151.239 25.0394C151.853 28.8804 152.345 31.9806 154.527 31.8461H160.655C158.884 32.2033 158.366 27.101 157.995 24.6976C156.999 18.2587 155.913 17.942 152.936 17.823L152.902 17.7162C156.656 16.5167 159.037 13.5983 158.948 10.0611C158.83 5.3584 155.586 2.14307 148.007 2.61937H128.236V31.8461Z" fill="#274189"/>
<path fill-rule="evenodd" clip-rule="evenodd" d="M238.038 25.8766C238.389 25.8766 238.935 25.9714 238.852 26.7344C238.793 27.3098 238.422 27.4157 238.038 27.4157H236.618V25.8766H238.038ZM236.048 29.8367H236.618V27.9206H238.075C238.992 27.9206 238.737 28.7453 238.831 29.2745L238.925 29.8367H239.6C239.352 29.4509 239.438 29.356 239.39 28.7673C239.32 27.9912 239.307 27.9206 238.852 27.6274C239.285 27.2988 239.46 27.0871 239.438 26.5117C239.379 25.4996 238.713 25.3717 238.027 25.3717H236.048V29.8367ZM241.103 27.7222C241.103 29.7088 239.506 31.3074 237.548 31.3074C235.582 31.3185 233.997 29.7088 233.997 27.7332C233.986 25.7487 235.582 24.1369 237.539 24.1369C239.506 24.1369 241.103 25.7487 241.103 27.7222ZM241.566 27.7222C241.566 25.4886 239.762 23.6673 237.548 23.6673C235.327 23.6673 233.521 25.4886 233.531 27.7222C233.531 29.9668 235.327 31.7771 237.548 31.7771C239.762 31.7639 241.566 29.9668 241.566 27.7222Z" fill="#274189"/>
<path d="M238.04 25.877H236.619V27.4161H238.04C238.423 27.4161 238.794 27.3103 238.854 26.7348C238.936 25.9719 238.391 25.877 238.04 25.877ZM236.049 29.8372V25.3721H238.028C238.714 25.3721 239.38 25.5 239.44 26.5121C239.461 27.0876 239.286 27.2992 238.854 27.6278C239.308 27.921 239.321 27.9916 239.392 28.7677C239.44 29.3565 239.354 29.4513 239.601 29.8372H238.926L238.832 29.2749C238.738 28.7457 238.993 27.921 238.076 27.921H236.619V29.8372H236.049Z" fill="#274189"/>
</svg>
